<svg width="24" height="24" viewBox="0 0 24 24" fill="none" xmlns="http://www.w3.org/2000/svg">
<path d="M22.5281 14.9531C21.9984 14.9531 21.5719 15.3797 21.5719 15.9094V21.5672H2.42812V15.9094C2.42812 15.3797 2.00156 14.9531 1.47187 14.9531C0.942187 14.9531 0.515625 15.3797 0.515625 15.9094V22.5281C0.515625 23.0578 0.942187 23.4844 1.47187 23.4844H22.5281C23.0578 23.4844 23.4844 23.0578 23.4844 22.5281V15.9094C23.4844 15.3797 23.0578 14.9531 22.5281 14.9531Z" fill="black"/>
<path d="M11.325 16.5329C11.8453 17.0344 12.4687 16.7766 12.6797 16.5329L18.5015 10.7157C18.8765 10.3407 18.8765 9.73599 18.5015 9.36099C18.1265 8.98599 17.5219 8.98599 17.1469 9.36099L12.9562 13.5469V1.39692C12.9562 0.867236 12.5297 0.440674 12 0.440674C11.4703 0.440674 11.0437 0.867236 11.0437 1.39692V13.5422L6.8531 9.3563C6.4781 8.9813 5.87341 8.9813 5.49841 9.3563C5.12341 9.7313 5.12341 10.336 5.49841 10.711L11.325 16.5329Z" fill="black"/>
</svg>
